<?xml version="1.0" standalone="no"?>
<!DOCTYPE svg PUBLIC "-//W3C//DTD SVG 20010904//EN"
 "http://www.w3.org/TR/2001/REC-SVG-20010904/DTD/svg10.dtd">
<svg version="1.0" xmlns="http://www.w3.org/2000/svg"
 width="64.000000pt" height="68.000000pt" viewBox="0 0 64.000000 68.000000"
 preserveAspectRatio="xMidYMid meet">

<g transform="translate(0.000000,68.000000) scale(0.100000,-0.100000)"
fill="#000000" stroke="none">
<path d="M190 582 c-14 -2 -30 -8 -37 -14 -16 -13 -5 -38 18 -38 18 0 19 -10
19 -152 0 -233 17 -266 129 -255 80 9 111 22 111 47 0 20 -3 21 -85 14 l-84
-7 -11 27 c-5 15 -10 49 -10 76 l0 48 71 7 c73 7 93 22 69 49 -11 14 -27 14
-112 1 -26 -4 -28 -2 -28 33 0 20 3 54 6 75 l7 37 79 0 c62 0 80 3 85 16 3 8
2 19 -3 24 -9 9 -180 18 -224 12z"/>
</g>
</svg>
