<?xml version="1.0" standalone="no"?>
<!DOCTYPE svg PUBLIC "-//W3C//DTD SVG 20010904//EN"
 "http://www.w3.org/TR/2001/REC-SVG-20010904/DTD/svg10.dtd">
<svg version="1.0" xmlns="http://www.w3.org/2000/svg"
 width="61.000000pt" height="82.000000pt" viewBox="0 0 61.000000 82.000000"
 preserveAspectRatio="xMidYMid meet">

<g transform="translate(0.000000,82.000000) scale(0.100000,-0.100000)"
fill="#000000" stroke="none">
<path d="M275 685 c-104 -14 -135 -22 -135 -37 0 -5 8 -12 18 -15 17 -4 18
-18 15 -203 -3 -128 0 -200 6 -205 6 -3 46 -7 89 -8 61 -1 85 3 106 17 34 22
31 52 -4 48 -14 -2 -50 -6 -81 -9 l-56 -5 -7 37 c-4 20 -4 56 0 80 6 44 7 45
44 45 39 0 67 21 55 41 -5 7 -24 9 -52 6 l-44 -5 3 82 3 81 73 6 c76 6 101 21
80 46 -6 7 -13 12 -17 12 -3 -1 -46 -7 -96 -14z"/>
</g>
</svg>
