<?xml version="1.0" standalone="no"?>
<!DOCTYPE svg PUBLIC "-//W3C//DTD SVG 20010904//EN"
 "http://www.w3.org/TR/2001/REC-SVG-20010904/DTD/svg10.dtd">
<svg version="1.0" xmlns="http://www.w3.org/2000/svg"
 width="74.000000pt" height="81.000000pt" viewBox="0 0 74.000000 81.000000"
 preserveAspectRatio="xMidYMid meet">

<g transform="translate(0.000000,81.000000) scale(0.100000,-0.100000)"
fill="#000000" stroke="none">
<path d="M350 639 c-25 -5 -53 -8 -62 -5 -9 2 -18 0 -20 -4 -2 -5 -25 -17 -52
-27 -56 -21 -78 -45 -58 -65 11 -11 12 -10 7 4 -7 19 23 42 68 53 30 8 34 -2
17 -51 -5 -16 -14 -48 -20 -71 -9 -37 -15 -44 -50 -54 -22 -7 -40 -16 -40 -20
0 -4 14 -3 31 3 16 6 33 8 36 4 3 -3 1 -31 -6 -62 -22 -114 -9 -155 42 -121
37 24 127 108 127 119 0 5 -30 -18 -66 -51 -103 -94 -120 -82 -88 59 17 77 4
67 129 98 29 7 33 10 15 11 -14 0 -45 -4 -69 -10 -24 -5 -46 -8 -48 -5 -8 8
36 159 49 167 7 5 38 11 68 15 30 3 69 10 85 14 29 8 28 8 -10 8 -22 0 -60 -4
-85 -9z"/>
</g>
</svg>
