<?xml version="1.0" standalone="no"?>
<!DOCTYPE svg PUBLIC "-//W3C//DTD SVG 20010904//EN"
 "http://www.w3.org/TR/2001/REC-SVG-20010904/DTD/svg10.dtd">
<svg version="1.0" xmlns="http://www.w3.org/2000/svg"
 width="32px" height="32px" viewBox="0 0 591.000000 591.000000"
 preserveAspectRatio="xMidYMid meet">

<g transform="translate(-50.000000,571.000000) scale(0.100000,-0.100000)"
stroke="none" fill="#FF00FF">
<path d="M2575 5342 c-64 -22 -115 -58 -189 -130 -180 -176 -274 -403 -346
-836 -26 -153 -34 -176 -69 -211 -25 -23 -42 -29 -114 -36 -146 -15 -257 -48
-339 -100 -77 -50 -399 -396 -486 -522 -44 -65 -46 -71 -46 -135 1 -88 37
-163 113 -235 66 -63 121 -97 215 -132 162 -61 157 -51 167 -360 11 -346 38
-576 85 -726 29 -92 123 -238 255 -394 196 -233 225 -313 179 -488 -49 -186
-93 -250 -220 -316 -78 -41 -106 -65 -130 -111 -51 -102 -38 -226 27 -251 16
-6 133 -9 297 -7 307 3 311 4 392 85 66 67 105 148 174 363 103 325 110 341
151 382 71 68 210 77 330 22 35 -17 109 -61 162 -97 101 -70 178 -111 260
-142 26 -10 44 -21 40 -26 -4 -4 -75 -28 -158 -54 -260 -82 -316 -117 -371
-232 -38 -79 -46 -211 -15 -260 14 -22 31 -34 53 -38 18 -4 305 -4 638 -2 513
3 616 6 679 20 195 43 341 110 521 238 154 109 190 130 352 208 171 80 234
134 288 242 33 64 95 288 102 364 l3 40 -50 -1 c-52 -2 -146 -38 -192 -74 -14
-11 -29 -20 -32 -20 -4 0 -4 26 0 57 4 32 8 112 8 178 4 635 -332 1143 -958
1447 -385 187 -820 259 -1452 241 -239 -6 -273 -4 -283 24 -4 10 -2 67 5 127
9 87 9 142 -1 265 -14 176 -11 197 46 319 49 103 103 188 204 321 137 181 178
260 231 444 57 201 76 427 41 497 -48 97 -172 87 -299 -26 -53 -45 -53 -45
-53 -19 0 41 -30 83 -72 100 -49 19 -81 19 -143 -3z"/>
</g>
</svg>
